<svg width="16" height="16" viewBox="0 0 16 16" fill="none" xmlns="http://www.w3.org/2000/svg">
<path d="M5.19353 5.33247L10.8069 5.33247C11.0285 5.33215 11.2456 5.3946 11.4332 5.51258C11.6208 5.63056 11.7712 5.79926 11.8669 5.99914C11.9789 6.2363 12.022 6.50016 11.9914 6.76065C11.9607 7.02114 11.8575 7.26778 11.6935 7.47247L8.88686 10.8725C8.77672 10.9996 8.64054 11.1015 8.48756 11.1713C8.33458 11.2412 8.16837 11.2773 8.0002 11.2773C7.83202 11.2773 7.66581 11.2412 7.51283 11.1713C7.35985 11.1015 7.22368 10.9996 7.11353 10.8725L4.30686 7.47247C4.14286 7.26778 4.03966 7.02114 4.00901 6.76065C3.97836 6.50016 4.02151 6.2363 4.13353 5.99914C4.22923 5.79926 4.37957 5.63056 4.56716 5.51258C4.75475 5.3946 4.97192 5.33215 5.19353 5.33247Z" fill="white"/>
</svg>
